<?xml version="1.0" encoding="UTF-8" standalone="no"?>
<!-- Uploaded to: SVG Repo, www.svgrepo.com, Generator: SVG Repo Mixer Tools -->

<svg
   width="800px"
   height="800px"
   viewBox="0 0 24 24"
   fill="none"
   version="1.1"
   id="svg2"
   sodipodi:docname="trash.svg"
   inkscape:version="1.3.2 (091e20e, 2023-11-25, custom)"
   xmlns:inkscape="http://www.inkscape.org/namespaces/inkscape"
   xmlns:sodipodi="http://sodipodi.sourceforge.net/DTD/sodipodi-0.dtd"
   xmlns="http://www.w3.org/2000/svg"
   xmlns:svg="http://www.w3.org/2000/svg">
  <defs
     id="defs2" />
  <sodipodi:namedview
     id="namedview2"
     pagecolor="#ffffff"
     bordercolor="#666666"
     borderopacity="1.0"
     inkscape:showpageshadow="2"
     inkscape:pageopacity="0.0"
     inkscape:pagecheckerboard="0"
     inkscape:deskcolor="#d1d1d1"
     inkscape:zoom="0.97125"
     inkscape:cx="399.4852"
     inkscape:cy="400"
     inkscape:window-width="1920"
     inkscape:window-height="991"
     inkscape:window-x="2391"
     inkscape:window-y="539"
     inkscape:window-maximized="1"
     inkscape:current-layer="svg2" />
  <path
     d="m 0.97083167,5.0135258 c 0,-0.5512107 0.41365653,-0.9980552 0.92393043,-0.9980552 L 5.0856834,4.0149317 C 5.7196781,3.9975772 6.2789972,3.5621108 6.4947243,2.9178639 6.5004013,2.9009286 6.5069167,2.880029 6.5303075,2.8042275 L 6.6678018,2.3585688 C 6.7519392,2.0853288 6.8252375,1.8472769 6.9278193,1.6344841 7.3330441,0.79386468 8.0827832,0.21012481 8.9491768,0.06067763 9.168473,0.02284274 9.4007162,0.02301042 9.6673449,0.02319007 h 4.1655501 c 0.266604,-1.7965e-4 0.498836,-3.4733e-4 0.718132,0.03748756 0.866405,0.14944718 1.616156,0.73318705 2.021333,1.57380647 0.102642,0.2127928 0.17594,0.4508447 0.260018,0.7240847 l 0.137494,0.4456587 c 0.02348,0.075801 0.02994,0.096701 0.03557,0.1136364 0.215823,0.6442469 0.886048,1.0802523 1.519983,1.0976067 h 3.079848 c 0.510214,0 0.923894,0.4468445 0.923894,0.9980552 0,0.5512227 -0.41368,0.9980672 -0.923894,0.9980672 H 1.8947621 c -0.5102739,0 -0.92393043,-0.4468445 -0.92393043,-0.9980672 z"
     fill="#1c274c"
     id="path1"
     style="stroke-width:1.19769;fill:#000000" />
  <path
     d="m 11.578491,23.976634 h 0.942459 c 3.242733,0 4.86404,0 5.918243,-1.033842 1.054202,-1.033842 1.162114,-2.729645 1.377817,-6.12137 l 0.310799,-4.887275 C 20.244823,10.093904 20.30339,9.1737219 19.774492,8.5906288 19.245594,8.0075356 18.3526,8.0075356 16.566372,8.0075356 H 7.5330097 c -1.7861561,0 -2.6792342,0 -3.2080961,0.5830932 -0.5288499,0.5830931 -0.470331,1.5032752 -0.3532932,3.3435182 l 0.3108113,4.887275 c 0.2157032,3.391725 0.3235547,5.087528 1.3777454,6.12137 1.0541907,1.033842 2.6755453,1.033842 5.9183139,1.033842 z"
     fill="#1c274c"
     id="path2"
     style="stroke-width:1.19769;fill:#000000" />
</svg>
