<?xml version="1.0" encoding="iso-8859-1"?>
<!-- Uploaded to: SVG Repo, www.svgrepo.com, Generator: SVG Repo Mixer Tools -->
<!DOCTYPE svg PUBLIC "-//W3C//DTD SVG 1.1//EN" "http://www.w3.org/Graphics/SVG/1.1/DTD/svg11.dtd">
<svg fill="#000000" version="1.1" id="Capa_1" xmlns="http://www.w3.org/2000/svg" xmlns:xlink="http://www.w3.org/1999/xlink" 
	 width="800px" height="800px" viewBox="0 0 410.758 410.758"
	 xml:space="preserve">
<g>
	<path d="M350.604,60.153C311.812,21.362,260.236,0,205.379,0C150.52,0,98.945,21.362,60.154,60.153S0,150.52,0,205.378
		c0,54.858,21.363,106.437,60.154,145.227c38.791,38.791,90.366,60.153,145.225,60.153c54.859,0,106.434-21.362,145.225-60.153
		c38.791-38.79,60.154-90.366,60.154-145.227C410.758,150.521,389.395,98.944,350.604,60.153z M102.587,150.29
		c0-16.955,13.795-30.749,30.749-30.749c16.955,0,30.749,13.794,30.749,30.749s-13.794,30.749-30.749,30.749
		C116.382,181.039,102.587,167.245,102.587,150.29z M299.729,235.734c-17.348,32.328-50.836,53.623-87.395,55.576
		c-1.852,0.098-3.705,0.146-5.549,0.146c-34.869,0-68.088-17.494-87.713-46.543c-2-2.963-3.865-6.051-5.545-9.178
		c-3.918-7.299-1.176-16.394,6.123-20.312c7.297-3.918,16.393-1.178,20.311,6.123c1.201,2.238,2.539,4.449,3.973,6.574
		c14.797,21.903,40.408,34.639,66.8,33.229c26.162-1.397,50.136-16.65,62.562-39.805c3.918-7.299,13.01-10.041,20.312-6.125
		C300.904,219.343,303.646,228.438,299.729,235.734z M293.171,184.478c-8.285,0-15-6.717-15-15c0-11.027-8.973-20-20-20
		c-11.028,0-20,8.973-20,20c0,8.283-6.717,15-15,15c-8.285,0-15-6.717-15-15c0-27.57,22.431-50,50-50c27.57,0,50,22.43,50,50
		C308.171,177.761,301.454,184.478,293.171,184.478z"/>
</g>
</svg>